{"title":"Blade Runner Final Cut (PSP + Ipod touch + Zune)","uid":5643968,"size":464142261,"categoryP":"video","categoryS":"handheld","magnet":"?xt=urn:btih:6b0f48b36007fa7b28fbccf731abc7b133274ab2&amp;dn=Blade+Runner+Final+Cut+%28PSP+%2B+Ipod+touch+%2B+Zune%29&amp;tr=udp%3A%2F%2Ftracker.openbittorrent.com%3A80&amp;tr=udp%3A%2F%2Fopen.demonii.com%3A1337&amp;tr=udp%3A%2F%2Ftracker.coppersurfer.tk%3A6969&amp;tr=udp%3A%2F%2Fexodus.desync.com%3A6969","seeders":0,"leechers":0,"uploader":"on.off.on","files":-1,"time":1277224963,"description":"Blade Runner\n\nsource:\n\nBlade.Runner.1982.Final.Cut.720p.HDDVD.DTS.x264-ESiR &lt;a href=&quot;\nhttp://www.imdb.com/title/tt0083658/&quot; rel=&quot;nofollow&quot; target=&quot;_NEW&quot;&gt;\nhttp://www.imdb.com/title/tt0083658/&lt;/a&gt;\n\nID                               : 1\nFormat                           : AVC\nFormat/Info                      : Advanced Video Codec\nFormat profile                   : &lt;a class=&quot;__cf_email__&quot; href=&quot;/cdn-cgi/l/email-protection&quot; data-cfemail=&quot;c785a6b4a2abaea9a2878bf5e9f7&quot;&gt;[email&amp;#160;protected]&lt;/a&gt;&lt;script cf-hash='f9e31' type=&quot;text/javascript&quot;&gt;\n/* &lt;![CDATA[ */!function(){try{var t=&quot;currentScript&quot;in document?document.currentScript:function(){for(var t=document.getElementsByTagName(&quot;script&quot;),e=t.length;e--;)if(t[e].getAttribute(&quot;cf-hash&quot;))return t[e]}();if(t&amp;&amp;t.previousSibling){var e,r,n,i,c=t.previousSibling,a=c.getAttribute(&quot;data-cfemail&quot;);if(a){for(e=&quot;&quot;,r=parseInt(a.substr(0,2),16),n=2;a.length-n;n+=2)i=parseInt(a.substr(n,2),16)^r,e+=String.fromCharCode(i);e=document.createTextNode(e),c.parentNode.replaceChild(e,c)}}}catch(u){}}();/* ]]&gt; */&lt;/script&gt;\nFormat settings, CABAC           : No\nFormat settings, ReFrames        : 3 frames\nCodec ID                         : avc1\nCodec ID/Info                    : Advanced Video Coding\nDuration                         : 1h 57mn\nBit rate mode                    : Variable\nBit rate                         : 395 Kbps\nWidth                            : 464 pixels\nHeight                           : 192 pixels\nDisplay aspect ratio             : 2.40:1\nFrame rate mode                  : Variable\nFrame rate                       : 23.976 fps\nMinimum frame rate               : 23.810 fps\nMaximum frame rate               : 24.390 fps\nColor space                      : YUV\nChroma subsampling               : 4:2:0\nBit depth                        : 8 bits\nScan type                        : Progressive\nBits/(Pixel*Frame)               : 0.185\nStream size                      : 332 MiB (75%)\nWriting library                  : x264 core 79\n\nID                               : 2\nFormat                           : AAC\nFormat/Info                      : Advanced Audio Codec\nFormat version                   : Version 4\nFormat profile                   : LC\nFormat settings, SBR             : No\nCodec ID                         : 40\nDuration                         : 1h 57mn\nBit rate mode                    : Variable\nBit rate                         : 128 Kbps\nMaximum bit rate                 : 206 Kbps\nChannel(s)                       : 2 channels\nChannel positions                : Front: L R\nSampling rate                    : 48.0 KHz\nStream size                      : 107 MiB (24%)\nLanguage                         : English\n &lt;a href=&quot;\nhttp://img375.imageshack.us/img375/9587/vlcsnap00001p.png&quot; rel=&quot;nofollow&quot; target=&quot;_NEW&quot;&gt;\nhttp://img375.imageshack.us/img375/9587/vlcsnap00001p.png&lt;/a&gt; &lt;a href=&quot;\nhttp://img175.imageshack.us/img175/2329/vlcsnap00002i.png&quot; rel=&quot;nofollow&quot; target=&quot;_NEW&quot;&gt;\nhttp://img175.imageshack.us/img175/2329/vlcsnap00002i.png&lt;/a&gt; &lt;a href=&quot;\nhttp://img534.imageshack.us/img534/9809/vlcsnap00003it.png&quot; rel=&quot;nofollow&quot; target=&quot;_NEW&quot;&gt;\nhttp://img534.imageshack.us/img534/9809/vlcsnap00003it.png&lt;/a&gt; &lt;a href=&quot;\nhttp://img714.imageshack.us/img714/5479/vlcsnap00004xv.png&quot; rel=&quot;nofollow&quot; target=&quot;_NEW&quot;&gt;\nhttp://img714.imageshack.us/img714/5479/vlcsnap00004xv.png&lt;/a&gt; &lt;a href=&quot;\nhttp://img28.imageshack.us/img28/8225/vlcsnap00005n.png&quot; rel=&quot;nofollow&quot; target=&quot;_NEW&quot;&gt;\nhttp://img28.imageshack.us/img28/8225/vlcsnap00005n.png&lt;/a&gt; &lt;a href=&quot;\nhttp://img443.imageshack.us/img443/6129/vlcsnap00006e.png&quot; rel=&quot;nofollow&quot; target=&quot;_NEW&quot;&gt;\nhttp://img443.imageshack.us/img443/6129/vlcsnap00006e.png&lt;/a&gt; &lt;a href=&quot;\nhttp://img39.imageshack.us/img39/5922/vlcsnap00007z.png&quot; rel=&quot;nofollow&quot; target=&quot;_NEW&quot;&gt;\nhttp://img39.imageshack.us/img39/5922/vlcsnap00007z.png&lt;/a&gt; &lt;a href=&quot;\nhttp://img541.imageshack.us/img541/3580/vlcsnap00008n.png&quot; rel=&quot;nofollow&quot; target=&quot;_NEW&quot;&gt;\nhttp://img541.imageshack.us/img541/3580/vlcsnap00008n.png&lt;/a&gt;\n\n\n\n\n\nPLEASE LET THE TORRENT SEED AND SHARE IT WITH ALL YOU KNOW!\n\nLet me know what I can do to be your trusted source of Handheld videos.\n\n\n\n\n\n-OOO \n","torrent":{"xt":"urn:btih:6b0f48b36007fa7b28fbccf731abc7b133274ab2","amp;dn":"Blade+Runner+Final+Cut+%28PSP+%2B+Ipod+touch+%2B+Zune%29","amp;tr":["udp%3A%2F%2Ftracker.openbittorrent.com%3A80","udp%3A%2F%2Fopen.demonii.com%3A1337","udp%3A%2F%2Ftracker.coppersurfer.tk%3A6969","udp%3A%2F%2Fexodus.desync.com%3A6969"],"infoHash":"6b0f48b36007fa7b28fbccf731abc7b133274ab2","infoHashBuffer":{"type":"Buffer","data":[107,15,72,179,96,7,250,123,40,251,204,247,49,171,199,177,51,39,74,178]},"announce":[],"urlList":[]}}